HIERARCHY
ROOT root
{
	OFFSET	0	13.1	24.9
	CHANNELS 6  Xposition Yposition Zposition Xrotation Yrotation Zrotation
	JOINT spine_1
	{
		OFFSET	0	9.99999	0
		CHANNELS 3  Xrotation Yrotation Zrotation
		JOINT spine_2
		{
			OFFSET	0	112	-10
			CHANNELS 3  Xrotation Yrotation Zrotation
			JOINT spine_3
			{
				OFFSET	0	206.5	19.3
				CHANNELS 3  Xrotation Yrotation Zrotation
				JOINT spine_4
				{
					OFFSET	0	110.4	14.6
					CHANNELS 3  Xrotation Yrotation Zrotation
					JOINT neck_1
					{
						OFFSET	0	71.8	-50.3
						CHANNELS 3  Xrotation Yrotation Zrotation
						JOINT neck_2
						{
							OFFSET	0	86.2	-25.8
							CHANNELS 3  Xrotation Yrotation Zrotation
							JOINT head_ee
							{
								OFFSET	0	179.8	-8.7
								CHANNELS 3  Xrotation Yrotation Zrotation
								End Site
								{
									OFFSET	1	0	0
								}
							}
						}
					}
					JOINT left_clavicle
					{
						OFFSET	-43.2	22.4	-70.8
						CHANNELS 3  Xrotation Yrotation Zrotation
						JOINT left_shoulder
						{
							OFFSET	-93.9	-5.79999	48.7
							CHANNELS 3  Xrotation Yrotation Zrotation
							JOINT left_elbow
							{
								OFFSET	-291.4	-30.8	15.2
								CHANNELS 3  Xrotation Yrotation Zrotation
								JOINT left_lowarm_twist
								{
									OFFSET	-110.7	-3.89999	13.6
									CHANNELS 3  Xrotation Yrotation Zrotation
									JOINT left_hand
									{
										OFFSET	-110.7	-3.89999	13.6
										CHANNELS 3  Xrotation Yrotation Zrotation
										JOINT left_ee
										{
											OFFSET	-80.8	-5.10001	12.1
											CHANNELS 3  Xrotation Yrotation Zrotation
											End Site
											{
												OFFSET	1	0	0
											}
										}
									}
								}
							}
						}
					}
					JOINT right_clavicle
					{
						OFFSET	43.2	22.4	-70.8
						CHANNELS 3  Xrotation Yrotation Zrotation
						JOINT right_shoulder
						{
							OFFSET	93.9	-5.79999	48.7
							CHANNELS 3  Xrotation Yrotation Zrotation
							JOINT right_elbow
							{
								OFFSET	291.4	-30.8	15.2
								CHANNELS 3  Xrotation Yrotation Zrotation
								JOINT right_lowarm_twist
								{
									OFFSET	110.7	-3.89999	13.6
									CHANNELS 3  Xrotation Yrotation Zrotation
									JOINT right_hand
									{
										OFFSET	110.7	-3.89999	13.6
										CHANNELS 3  Xrotation Yrotation Zrotation
										JOINT right_ee
										{
											OFFSET	80.8	-5.10001	12.1
											CHANNELS 3  Xrotation Yrotation Zrotation
											End Site
											{
												OFFSET	1	0	0
											}
										}
									}
								}
							}
						}
					}
				}
			}
		}
	}
	JOINT left_hip
	{
		OFFSET	-82.8	-127.5	0.300001
		CHANNELS 3  Xrotation Yrotation Zrotation
		JOINT left_knee
		{
			OFFSET	-28.2	-396.7	2.2
			CHANNELS 3  Xrotation Yrotation Zrotation
			JOINT left_ankle
			{
				OFFSET	-11.7	-411.3	35.4
				CHANNELS 3  Xrotation Yrotation Zrotation
				JOINT left_toes
				{
					OFFSET	0	-60	-88.6
					CHANNELS 3  Xrotation Yrotation Zrotation
					JOINT left_foot_ee
					{
						OFFSET	-22.5	-16.5	-42.2
						CHANNELS 3  Xrotation Yrotation Zrotation
						End Site
						{
							OFFSET	1	0	0
						}
					}
				}
			}
		}
	}
	JOINT right_hip
	{
		OFFSET	82.8	-127.5	0.300001
		CHANNELS 3  Xrotation Yrotation Zrotation
		JOINT right_knee
		{
			OFFSET	28.2	-396.7	2.2
			CHANNELS 3  Xrotation Yrotation Zrotation
			JOINT right_ankle
			{
				OFFSET	11.7	-411.3	35.4
				CHANNELS 3  Xrotation Yrotation Zrotation
				JOINT right_toes
				{
					OFFSET	0	-60	-88.6
					CHANNELS 3  Xrotation Yrotation Zrotation
					JOINT right_foot_ee
					{
						OFFSET	22.5	-16.5	-42.2
						CHANNELS 3  Xrotation Yrotation Zrotation
						End Site
						{
							OFFSET	1	0	0
						}
					}
				}
			}
		}
	}
}
MOTION
Frames: 7
Frame Time: 0.02
3422.76 732.236 -1583.39 -6.90542 53.8713 -1.20051 3.14058 1.26335 3.92504 3.14858 1.01123 3.99732 3.21668 0.381011 4.10543 3.19463 1.02409 3.99405 -16.9227 21.0835 4.95197 -18.7059 37.7682 13.1579 -0.0 0.0 -0.0 -10.5296 24.6956 -11.5608 -25.1497 -10.3616 75.3231 1.5347 -37.2411 0.517123 -0.223623 -0.00793291 0.0274571 -2.40786 15.259 -8.68676 -0.0 0.0 -0.0 14.5729 26.3696 -29.3029 8.37841 58.4607 -75.1332 0.452441 12.6329 -0.0500817 36.6867 0.188238 4.60362 -0.149225 3.41585 2.44953 0.0 0.0 0.0 22.6635 19.9999 -11.8976 -40.0597 -0.470567 6.00663 8.93461 -10.0175 -1.33988 23.373 -0.0 -0.0 -0.0 0.0 -0.0 -8.47583 28.0428 4.98217 6.34483 0.31277 0.922598 38.8496 -4.63371 4.75698 -31.5071 0.0 0.0 0.0 0.0 0.0 
3416.84 731.024 -1581.0 -7.29668 54.9827 -0.588605 3.15047 1.04879 3.75909 3.15797 0.807647 3.81809 3.2094 0.20659 3.89699 3.18915 0.819003 3.81567 -16.6034 21.3766 5.32636 -18.3468 38.082 13.4945 -0.0 0.0 -0.0 -9.9455 24.0809 -10.9779 -25.9593 -8.95565 75.7709 1.4044 -34.8243 0.440458 0.731314 0.0251926 -0.0900025 -2.0039 13.3066 -7.11922 -0.0 0.0 -0.0 14.5866 26.3791 -29.334 9.06718 58.4035 -74.3842 0.448923 12.5378 -0.0493152 36.66 0.187033 4.60043 -0.0158644 4.46423 1.99781 0.0 0.0 0.0 23.9516 16.1061 -11.9147 -36.8776 -0.280163 5.55619 8.08274 -12.0403 -1.23079 22.3433 -0.0 -0.0 -0.0 0.0 -0.0 -8.0863 27.0846 4.5749 6.10626 0.299166 0.888551 39.1506 -6.5149 4.78503 -31.8279 0.0 0.0 0.0 0.0 0.0 
3412.76 737.52 -1577.45 -7.01638 56.0472 -0.625448 3.04513 0.855533 3.68176 3.05246 0.619687 3.72865 3.09061 0.026487 3.77963 3.07122 0.622655 3.72815 -18.2568 21.1913 5.56505 -20.2829 37.8289 14.3334 -0.0 0.0 -0.0 -9.24845 23.9871 -10.0035 -26.6666 -7.73413 75.7699 1.33802 -33.5353 0.403164 1.06114 0.0361779 -0.130696 -2.09634 12.7062 -7.99965 -0.0 0.0 -0.0 14.3546 26.274 -28.801 9.09123 58.3277 -73.3889 0.464331 12.9538 -0.0527147 35.1998 0.12341 4.42493 0.206191 7.59533 1.83177 0.0 0.0 0.0 25.1854 15.3599 -10.7253 -34.6847 -0.163686 5.24007 10.9561 -12.8078 -1.65827 22.2103 -0.0 -0.0 -0.0 0.0 -0.0 -7.68561 27.6304 4.30567 5.81147 0.282554 0.846407 36.9692 -7.86392 4.59007 -33.6651 0.0 0.0 0.0 0.0 0.0 
3411.39 737.862 -1578.69 -8.30982 57.7157 0.481447 3.02296 0.741914 3.60518 3.03004 0.51116 3.64501 3.06046 -0.0697178 3.67997 3.04193 0.511947 3.6449 -18.5804 21.3127 6.38388 -20.611 37.6836 15.2483 -0.0 0.0 -0.0 -8.71655 23.294 -9.50098 -26.5899 -7.32215 75.6816 1.28195 -32.4158 0.372647 1.59094 0.0533321 -0.19619 -2.13369 12.7777 -8.20205 -0.0 0.0 -0.0 14.1729 26.4701 -28.3492 10.5572 58.5735 -73.2962 0.453865 12.6714 -0.0503936 35.3541 0.129922 4.44355 0.282023 8.24178 1.59496 0.0 0.0 0.0 27.2573 13.3969 -10.4671 -31.5549 -0.0186261 4.78182 11.3029 -13.5443 -1.71679 21.6875 -0.0 -0.0 -0.0 0.0 -0.0 -7.63418 27.5131 4.82314 5.78442 0.281041 0.842535 37.5467 -6.94357 4.64098 -34.1094 0.0 0.0 0.0 0.0 0.0 
3409.38 735.104 -1581.58 -9.39858 57.601 1.39479 2.98203 0.711658 3.66698 2.98938 0.477041 3.70476 3.01811 -0.115673 3.73352 2.99898 0.475005 3.70502 -15.6438 21.5463 5.66452 -17.1838 38.0685 13.4534 -0.0 0.0 -0.0 -7.96883 23.4114 -8.37467 -27.6625 -8.92298 74.0257 1.20038 -30.7359 0.329928 1.91376 0.0634874 -0.236174 -1.74873 12.4563 -5.91249 -0.0 0.0 -0.0 14.0322 26.3856 -28.0303 11.9888 59.0283 -73.051 0.574802 15.8939 -0.0802413 34.8146 0.107376 4.37837 0.571512 11.7328 1.13331 0.0 0.0 0.0 27.9539 12.2052 -11.1613 -26.9223 0.149591 4.09095 11.5965 -14.8062 -1.77493 20.0848 -0.0 -0.0 -0.0 0.0 -0.0 -5.33613 22.021 3.36589 6.55268 0.324737 0.952213 36.9939 -5.50028 4.58795 -33.6139 0.0 0.0 0.0 0.0 0.0 
3401.12 734.32 -1576.49 -8.69643 58.2881 0.367566 3.02402 0.649418 3.53216 3.03086 0.423488 3.56626 3.05515 -0.144377 3.58839 3.03743 0.423786 3.56623 -18.7893 21.2645 6.52729 -20.834 37.5468 15.4367 -0.0 0.0 -0.0 -8.10962 23.5615 -8.52346 -27.0858 -6.02956 76.0194 1.18727 -30.4603 0.323255 2.12479 0.0700034 -0.262341 -2.06319 12.3315 -7.97237 -0.0 0.0 -0.0 14.0553 26.6109 -28.0557 13.6297 59.1293 -73.3505 0.479747 13.3687 -0.0562246 34.8267 0.107876 4.37984 0.502766 10.4309 1.03901 0.0 0.0 0.0 29.1442 11.8264 -10.9154 -26.8789 0.1509 4.08442 11.8385 -13.9924 -1.79971 21.2438 -0.0 -0.0 -0.0 0.0 -0.0 -8.05696 26.7288 5.55808 5.45105 0.262539 0.794765 36.8269 -9.15686 4.5824 -35.1557 0.0 0.0 0.0 0.0 0.0 
3397.14 734.551 -1579.92 -8.81088 58.7493 0.772798 2.99779 0.639287 3.63212 3.00504 0.407029 3.66538 3.02893 -0.178005 3.68358 3.01023 0.405582 3.66554 -18.9858 21.1818 6.58609 -21.0424 37.3852 15.527 -0.0 0.0 -0.0 -7.96232 23.4127 -8.36486 -27.6003 -5.78565 76.0897 1.1642 -29.9715 0.311648 2.2742 0.074559 -0.280883 -2.0431 12.2257 -7.896 -0.0 0.0 -0.0 13.9115 26.6817 -27.7102 14.7768 59.3381 -73.4105 0.543736 15.0751 -0.0719473 34.5883 0.0981037 4.35098 0.618729 11.4556 0.695922 0.0 0.0 0.0 29.3476 11.1002 -11.4824 -24.9555 0.204003 3.79403 12.1711 -14.2927 -1.85159 21.1771 -0.0 -0.0 -0.0 0.0 -0.0 -7.58605 26.1771 4.71857 5.27149 0.252689 0.768993 36.6011 -9.60126 4.56353 -35.4165 0.0 0.0 0.0 0.0 0.0 
